<?xml version="1.0" standalone="no"?>
<!DOCTYPE svg PUBLIC "-//W3C//DTD SVG 20010904//EN"
 "http://www.w3.org/TR/2001/REC-SVG-20010904/DTD/svg10.dtd">
<svg version="1.0" xmlns="http://www.w3.org/2000/svg"
 width="480.000000pt" height="480.000000pt" viewBox="0 0 480.000000 480.000000"
 preserveAspectRatio="xMidYMid meet">
<metadata>
Created by potrace 1.16, written by Peter Selinger 2001-2019
</metadata>
<g transform="translate(0.000000,480.000000) scale(0.100000,-0.100000)"
fill="#000000" stroke="none">
<path d="M0 2400 l0 -2400 2400 0 2400 0 0 2400 0 2400 -2400 0 -2400 0 0
-2400z m1049 2025 c35 -9 96 -32 135 -52 64 -33 123 -89 636 -600 l565 -563
555 554 c365 365 575 567 613 591 86 54 158 76 267 82 165 9 299 -41 424 -157
201 -188 248 -501 107 -715 -41 -63 -62 -85 -452 -472 -700 -696 -694 -689
-679 -717 7 -14 238 -249 514 -523 275 -274 522 -523 550 -553 96 -108 153
-276 142 -418 -7 -89 -31 -174 -62 -224 -13 -21 -24 -42 -24 -47 0 -24 -139
-148 -200 -178 -189 -95 -410 -81 -576 36 -28 20 -298 280 -599 579 -301 298
-552 542 -558 542 -9 0 -963 -943 -1046 -1034 -37 -40 -128 -109 -178 -135
-110 -56 -280 -65 -415 -22 -83 27 -204 106 -256 169 -106 128 -142 224 -142
383 0 125 23 207 84 303 24 37 235 258 584 608 301 303 546 554 545 558 -1 4
-254 259 -561 566 -510 510 -562 565 -594 629 -69 136 -84 268 -48 409 27 107
63 169 145 252 139 140 331 194 524 149z"/>
</g>
</svg>
